<svg aria-hidden="true" style="position:absolute;width:0;height:0;overflow:hidden" xmlns="http://www.w3.org/2000/svg">
    <defs>
        <symbol id="icon-logo" viewBox="0 0 32 32">
            <path fill="#fcf1e0" style="fill:var(--color1, #fcf1e0)"
                d="M3.944 20.076 14.721 2.652l.64-.674 8.236 5.491.056 3.314 2.01 3.28-8.88 14.077-12.839-8.063z" />
            <path fill="none" stroke="#fd9222" style="stroke:var(--color2, #fd9222)" stroke-linejoin="round"
                stroke-linecap="round" stroke-width="2.6667"
                d="M21.635 23.879 7.449 15.015m3.912-6.416 14.186 8.864M10.63 25.864l11.736-19.25m4.81 8.175c-3.04-1.899-4.234-3.384-2.278-6.592l-9.626-6.015-11.736 19.25 14.186 8.864 9.454-15.507z" />
        </symbol>
        <symbol id="icon-bar" viewBox="0 0 32 32">
            <path style="fill:var(--color3, #000)"
                d="m13.511.472 8.602 8.613.091-.091a.98.98 0 0 1 1.354-.015l.998.998c.349.349.36.88.095 1.25l-.005.008-.163.219 7.04 7.04c.629.629.629 1.634 0 2.263L20.746 31.534c-.629.629-1.634.629-2.263 0l-5.082-5.082a.9612.9612 0 0 1-.7.362c-.136.008-.271-.014-.398-.062s-.242-.123-.338-.22l-2.971-2.971a.9798.9798 0 0 1-.015-1.354l.007-.008.088-.087L.472 13.51a1.5928 1.5928 0 0 1 0-2.263L11.249.47a1.5928 1.5928 0 0 1 2.263 0v.001zm7.522 9.691-2.007-2.006c-.063-.065-.139-.117-.222-.152s-.173-.053-.264-.053c-.091 0-.18.018-.264.053s-.159.087-.222.152l-4.091 4.091c-.065.064-.116.141-.151.225a.6937.6937 0 0 0 .151.757l1.999 1.999.697-.697-1.789-1.789 3.669-3.68 1.793 1.799.701-.701zm-5.801 5.797-2.005-2.005c-.063-.065-.139-.117-.222-.152s-.173-.053-.264-.053c-.091 0-.18.018-.264.053s-.159.087-.222.152l-4.103 4.103c-.274.263-.274.697 0 .971l2.002 2.002.704-.704-1.794-1.787 3.68-3.669 1.787 1.786.699-.698zM7.797 7.078l4.091 4.091c.274.274.709.274.971-.011l4.091-4.091c.065-.062.117-.136.152-.219s.054-.171.054-.261h.011c0-.171-.069-.354-.206-.491L12.87 2.005a.6884.6884 0 0 0-.491-.205.6884.6884 0 0 0-.491.205L7.797 6.108c-.274.263-.274.697 0 .971zm-5.795 5.794 4.091 4.091c.274.274.709.274.971 0l4.091-4.091a.6611.6611 0 0 0 .205-.491h.011c0-.183-.069-.354-.206-.491L7.074 7.799c-.063-.065-.139-.117-.222-.152s-.173-.053-.264-.053c-.091 0-.18.018-.264.053s-.159.087-.222.152l-4.103 4.103c-.274.263-.274.697 0 .971zm7.924 10.005 2.699 2.701 11.013-14.903-.749-.749L9.926 22.877z" />
            <path fill="#fd9222" style="fill:var(--color2, #fd9222)"
                d="m13.511.472 8.602 8.613.091-.091a.98.98 0 0 1 1.354-.015l.998.998c.349.349.36.88.095 1.25l-.005.008-.163.219 7.04 7.04c.629.629.629 1.634 0 2.263L20.746 31.534c-.629.629-1.634.629-2.263 0l-5.082-5.082a.9612.9612 0 0 1-.7.362c-.136.008-.271-.014-.398-.062s-.242-.123-.338-.22l-2.971-2.971a.9798.9798 0 0 1-.015-1.354l.007-.008.088-.087L.472 13.51a1.5928 1.5928 0 0 1 0-2.263L11.249.47a1.5928 1.5928 0 0 1 2.263 0v.001zm7.522 9.691-2.007-2.006c-.063-.065-.139-.117-.222-.152s-.173-.053-.264-.053c-.091 0-.18.018-.264.053s-.159.087-.222.152l-4.091 4.091c-.065.064-.116.141-.151.225a.6937.6937 0 0 0 .151.757l1.999 1.999.697-.697-1.789-1.789 3.669-3.68 1.793 1.799.701-.701zm-5.801 5.797-2.005-2.005c-.063-.065-.139-.117-.222-.152s-.173-.053-.264-.053c-.091 0-.18.018-.264.053s-.159.087-.222.152l-4.103 4.103c-.274.263-.274.697 0 .971l2.002 2.002.704-.704-1.794-1.787 3.68-3.669 1.787 1.786.699-.698zM7.797 7.078l4.091 4.091c.274.274.709.274.971-.011l4.091-4.091c.065-.062.117-.136.152-.219s.054-.171.054-.261h.011c0-.171-.069-.354-.206-.491L12.87 2.005a.6884.6884 0 0 0-.491-.205.6884.6884 0 0 0-.491.205L7.797 6.108c-.274.263-.274.697 0 .971zm-5.795 5.794 4.091 4.091c.274.274.709.274.971 0l4.091-4.091a.6611.6611 0 0 0 .205-.491h.011c0-.183-.069-.354-.206-.491L7.074 7.799c-.063-.065-.139-.117-.222-.152s-.173-.053-.264-.053c-.091 0-.18.018-.264.053s-.159.087-.222.152l-4.103 4.103c-.274.263-.274.697 0 .971zm7.924 10.005 2.699 2.701 11.013-14.903-.749-.749L9.926 22.877z" />
        </symbol>
        <symbol id="icon-coin" viewBox="0 0 32 32">
            <path fill="#fd9222" style="fill:var(--color2, #fd9222)"
                d="M16 2.667c-7.333 0-13.333 6-13.333 13.333s6 13.333 13.333 13.333 13.333-6 13.333-13.333S23.333 2.667 16 2.667zm0 24c-5.867 0-10.667-4.8-10.667-10.667S10.133 5.333 16 5.333 26.667 10.133 26.667 16 21.867 26.667 16 26.667z" />
            <path fill="#fd9222" style="fill:var(--color2, #fd9222)"
                d="M17.733 14.667h-3.467c-.667 0-1.2-.533-1.2-1.2s.533-1.2 1.2-1.2h4.933c.8 0 1.333-.533 1.333-1.333s-.533-1.333-1.333-1.333h-1.867v-1.2c0-.8-.533-1.333-1.333-1.333s-1.333.533-1.333 1.333v1.2h-.4c-2.133 0-3.867 1.733-3.867 3.867s1.733 3.867 3.867 3.867h3.333c.667 0 1.2.533 1.2 1.2s-.533 1.2-1.2 1.2h-4.933c-.8 0-1.333.533-1.333 1.333s.533 1.333 1.333 1.333h2v1.2c0 .8.533 1.333 1.333 1.333s1.333-.533 1.333-1.333v-1.2h.4c2.133 0 3.867-1.733 3.867-3.867s-1.733-3.867-3.867-3.867z" />
        </symbol>
        <symbol id="icon-spoon" viewBox="0 0 32 32">
            <path fill="#fd9222" style="fill:var(--color2, #fd9222)"
                d="M15.451 14.106c-.783-.95-1.177-2.116-1.177-3.282 0-4.324 5.181-8.642 10.362-8.642 2.86 0 5.181 2.321 5.181 5.182 0 5.182-4.318 10.364-8.646 10.364-1.166 0-2.331-.394-3.281-1.177L5.132 29.312c-.675.675-1.77.675-2.445 0s-.675-1.771 0-2.445l12.764-12.761z" />
        </symbol>
        <symbol id="icon-facebook" viewBox="0 0 32 32">
            <path
                d="M19.52 4.64h.96v3.6h-1.2c-.48 0-.96 0-1.2.24s-.24.48-.24 1.04v1.28h2.64v3.04h-2.64v13.2h-4.08V13.76H11.6v-3.04h2.16V9.68c0-1.76.24-3.04.72-3.6.72-1.04 2.16-1.52 4.32-1.52.24.08.48.08.72.08z" />
        </symbol>
        <symbol id="icon-instagram" viewBox="0 0 32 32">
            <path
                d="M28.718 10.756c-.016-1.074-.215-2.14-.596-3.145a6.5468 6.5468 0 0 0-3.743-3.737c-.994-.373-2.044-.573-3.108-.596-1.367-.061-1.801-.078-5.273-.078s-3.916 0-5.274.078a9.4182 9.4182 0 0 0-3.106.596 6.5412 6.5412 0 0 0-3.743 3.737 9.2883 9.2883 0 0 0-.596 3.101c-.061 1.367-.08 1.8-.08 5.265s0 3.909.08 5.265c.021 1.062.222 2.109.596 3.104a6.548 6.548 0 0 0 3.744 3.735c.989.386 2.04.605 3.106.639 1.369.061 1.803.079 5.274.079s3.917 0 5.274-.079a9.3622 9.3622 0 0 0 3.108-.595 6.5554 6.5554 0 0 0 3.743-3.737 9.346 9.346 0 0 0 .596-3.104c.061-1.365.08-1.798.08-5.265-.003-3.466-.003-3.906-.082-5.264zM15.99 22.531c-3.631 0-6.572-2.936-6.572-6.561s2.941-6.561 6.572-6.561c3.628 0 6.572 2.936 6.572 6.561s-2.944 6.561-6.572 6.561zm6.834-11.835c-.849 0-1.532-.684-1.532-1.53s.684-1.53 1.532-1.53c.846 0 1.531.684 1.531 1.53s-.685 1.53-1.531 1.53z" />
            <path
                d="M15.992 19.976c2.211 0 4.004-1.793 4.004-4.004s-1.793-4.004-4.004-4.004c-2.211 0-4.004 1.793-4.004 4.004s1.793 4.004 4.004 4.004z" />
        </symbol>
        <symbol id="icon-twitter" viewBox="0 0 32 32">
            <path
                d="M29.333 7.898c-.992.435-2.048.723-3.15.863 1.133-.677 1.998-1.74 2.405-3.022-1.057.63-2.223 1.075-3.467 1.323-1.003-1.068-2.433-1.73-3.993-1.73-3.027 0-5.463 2.457-5.463 5.468 0 .433.037.85.127 1.247-4.545-.222-8.567-2.4-11.268-5.718-.472.818-.748 1.755-.748 2.763 0 1.893.975 3.572 2.428 4.543-.878-.017-1.74-.272-2.47-.673v.06c0 2.657 1.895 4.863 4.38 5.372-.445.122-.93.18-1.433.18-.35 0-.703-.02-1.035-.093.708 2.165 2.718 3.757 5.108 3.808-1.86 1.455-4.222 2.332-6.778 2.332-.448 0-.878-.02-1.308-.075 2.422 1.562 5.292 2.453 8.387 2.453 10.06 0 15.56-8.333 15.56-15.557 0-.242-.008-.475-.02-.707 1.085-.77 1.997-1.732 2.74-2.838z" />
        </symbol>
        <symbol id="icon-menu" viewBox="0 0 32 32">
            <path stroke-linejoin="round" stroke-linecap="round" stroke-width="2.2857" d="M4 16h24M4 8h24M4 24h24" />
        </symbol>
        <symbol id="icon-close" viewBox="0 0 32 32">
            <path stroke-linejoin="round" stroke-linecap="round" stroke-width="2.2857"
                d="M22.666 9.333 9.333 22.666m0-13.333 13.333 13.333" />
        </symbol>
        <symbol id="icon-scroll-down" viewBox="0 0 32 32">
            <path
                d="M16.947 17.867c-.124.125-.271.224-.434.292s-.337.103-.513.103-.35-.035-.513-.103c-.162-.068-.31-.167-.434-.292l-6.107-6.12c-.124-.125-.271-.224-.434-.292s-.337-.103-.513-.103-.35.035-.513.103-.31.167-.434.292c-.248.25-.388.588-.388.94s.139.69.388.94l6.12 6.12c.75.749 1.767 1.17 2.827 1.17s2.077-.421 2.827-1.17l6.12-6.12c.246-.248.385-.584.387-.933.001-.175-.033-.349-.099-.512s-.164-.31-.288-.435c-.124-.125-.271-.224-.434-.292s-.337-.103-.513-.103-.35.035-.513.103c-.162.068-.31.167-.434.292l-6.107 6.12z" />
        </symbol>
        <symbol id="icon-arrow" viewBox="0 0 32 32">
            <path stroke-linejoin="round" stroke-linecap="round" stroke-width="1.3333"
                d="M9.143 16h13.714m0 0-3.429-3.429M22.857 16l-3.429 3.429M16 30.857c8.205 0 14.857-6.652 14.857-14.857S24.205 1.143 16 1.143C7.795 1.143 1.143 7.795 1.143 16S7.795 30.857 16 30.857z" />
        </symbol>
        <symbol id="icon-play" viewBox="0 0 32 32">
            <path fill="#f5f4f4" style="#f5f4f4" d="M10.909 24V8.727l14.545 7.636-14.545 7.636z" />
            <path fill="none" stroke="#f5f4f4" style="stroke:#f5f4f4" stroke-width=".7273"
                d="M31.636 16c0 8.636-7.001 15.636-15.636 15.636S.364 24.635.364 16C.364 7.364 7.365.364 16 .364S31.636 7.365 31.636 16z" />
        </symbol>
        <symbol id="icon-user" viewBox="0 0 32 32">
            <path stroke-linejoin="round" stroke-linecap="round" stroke-width="2.6667"
                d="M26.667 28v-2.667c0-1.414-.562-2.771-1.562-3.771S22.748 20 21.334 20H10.667c-1.415 0-2.771.562-3.771 1.562s-1.562 2.357-1.562 3.771V28M16 14.667c2.946 0 5.333-2.388 5.333-5.333S18.945 4.001 16 4.001c-2.945 0-5.333 2.388-5.333 5.333s2.388 5.333 5.333 5.333z" />
        </symbol>
        <symbol id="icon-mail" viewBox="0 0 32 32">
            <path stroke-linejoin="round" stroke-linecap="round" stroke-width="2.6667"
                d="M5.333 5.333h21.333c1.467 0 2.667 1.2 2.667 2.667v16c0 1.467-1.2 2.667-2.667 2.667H5.333c-1.467 0-2.667-1.2-2.667-2.667V8c0-1.467 1.2-2.667 2.667-2.667z" />
            <path stroke-linejoin="round" stroke-linecap="round" stroke-width="2.6667"
                d="M29.333 8 16 17.333 2.667 8" />
        </symbol>
        <symbol id="icon-phone" viewBox="0 0 32 32">
            <path stroke-linejoin="round" stroke-linecap="round" stroke-width="2.6667"
                d="M29.334 22.56v4c.001.371-.075.739-.223 1.079s-.367.646-.641.897-.597.442-.948.561a2.672 2.672 0 0 1-1.094.13 26.3976 26.3976 0 0 1-11.507-4.093 25.9989 25.9989 0 0 1-8-8 26.3822 26.3822 0 0 1-4.093-11.56c-.033-.369.01-.74.129-1.091s.308-.673.558-.947c.25-.273.553-.492.892-.641s.705-.227 1.075-.227h4a2.6678 2.6678 0 0 1 2.667 2.294 17.16 17.16 0 0 0 .933 3.747c.179.477.218.996.112 1.495s-.353.956-.712 1.319l-1.693 1.693a21.3331 21.3331 0 0 0 8 8l1.693-1.693a2.6663 2.6663 0 0 1 2.814-.6c1.21.451 2.466.764 3.747.933.648.091 1.239.418 1.662.917s.647 1.136.631 1.79z" />
        </symbol>
        <symbol id="icon-error" viewBox="0 0 32 32">
            <path
                d="M14.4 20.8h3.2V24h-3.2v-3.2zm0-12.8h3.2v9.6h-3.2V8zm1.584-8C7.152 0 0 7.168 0 16s7.152 16 15.984 16C24.832 32 32 24.832 32 16S24.832 0 15.984 0zM16 28.8C8.928 28.8 3.2 23.072 3.2 16S8.928 3.2 16 3.2c7.072 0 12.8 5.728 12.8 12.8S23.072 28.8 16 28.8z" />
        </symbol>
        <symbol id="icon-checkbox" viewBox="0 0 32 32">
            <path
                d="M12.636 31.213c1.395 0 2.449-.536 3.163-1.607l15.448-23.28c.257-.379.446-.753.569-1.121.123-.379.184-.742.184-1.088 0-.96-.335-1.752-1.004-2.377-.658-.636-1.473-.954-2.444-.954-.669 0-1.238.134-1.707.402-.457.257-.893.703-1.305 1.339L12.569 22.895l-6.494-7.782c-.703-.815-1.584-1.222-2.644-1.222-.993 0-1.813.318-2.46.954S0 16.279 0 17.238c0 .435.067.848.201 1.238.145.379.407.775.787 1.188l8.619 10.159c.792.926 1.802 1.389 3.029 1.389z" />
        </symbol>
    </defs>
</svg>