<svg aria-hidden="true" style="position:absolute;width:0;height:0;overflow:hidden" xmlns="http://www.w3.org/2000/svg">
    <defs>
        <symbol id="icon-facebook" viewBox="0 0 32 32">
            <path
                d="M19.52 4.64h.96v3.6h-1.2c-.48 0-.96 0-1.2.24s-.24.48-.24 1.04v1.28h2.64v3.04h-2.64v13.2h-4.08V13.76H11.6v-3.04h2.16V9.68c0-1.76.24-3.04.72-3.6.72-1.04 2.16-1.52 4.32-1.52.24.08.48.08.72.08z" />
        </symbol>
        <symbol id="icon-instagram" viewBox="0 0 32 32">
            <path
                d="M28.718 10.756c-.016-1.074-.215-2.14-.596-3.145a6.5468 6.5468 0 0 0-3.743-3.737c-.994-.373-2.044-.573-3.108-.596-1.367-.061-1.801-.078-5.273-.078s-3.916 0-5.274.078a9.4182 9.4182 0 0 0-3.106.596 6.5412 6.5412 0 0 0-3.743 3.737 9.2883 9.2883 0 0 0-.596 3.101c-.061 1.367-.08 1.8-.08 5.265s0 3.909.08 5.265c.021 1.062.222 2.109.596 3.104a6.548 6.548 0 0 0 3.744 3.735c.989.386 2.04.605 3.106.639 1.369.061 1.803.079 5.274.079s3.917 0 5.274-.079a9.3622 9.3622 0 0 0 3.108-.595 6.5554 6.5554 0 0 0 3.743-3.737 9.346 9.346 0 0 0 .596-3.104c.061-1.365.08-1.798.08-5.265-.003-3.466-.003-3.906-.082-5.264zM15.99 22.531c-3.631 0-6.572-2.936-6.572-6.561s2.941-6.561 6.572-6.561c3.628 0 6.572 2.936 6.572 6.561s-2.944 6.561-6.572 6.561zm6.834-11.835c-.849 0-1.532-.684-1.532-1.53s.684-1.53 1.532-1.53c.846 0 1.531.684 1.531 1.53s-.685 1.53-1.531 1.53z" />
            <path
                d="M15.992 19.976c2.211 0 4.004-1.793 4.004-4.004s-1.793-4.004-4.004-4.004c-2.211 0-4.004 1.793-4.004 4.004s1.793 4.004 4.004 4.004z" />
        </symbol>
        <symbol id="icon-twitter" viewBox="0 0 32 32">
            <path
                d="M30.667 7.898c-.992.435-2.048.723-3.15.863 1.133-.677 1.998-1.74 2.405-3.022-1.057.63-2.223 1.075-3.467 1.323-1.003-1.068-2.433-1.73-3.993-1.73-3.027 0-5.463 2.457-5.463 5.468 0 .433.037.85.127 1.247-4.545-.222-8.567-2.4-11.268-5.718-.472.818-.748 1.755-.748 2.763 0 1.893.975 3.572 2.428 4.543-.878-.017-1.74-.272-2.47-.673v.06c0 2.657 1.895 4.863 4.38 5.372-.445.122-.93.18-1.433.18-.35 0-.703-.02-1.035-.093.708 2.165 2.718 3.757 5.108 3.808-1.86 1.455-4.222 2.332-6.778 2.332-.448 0-.878-.02-1.308-.075 2.422 1.562 5.292 2.453 8.387 2.453 10.06 0 15.56-8.333 15.56-15.557 0-.242-.008-.475-.02-.707 1.085-.77 1.997-1.732 2.74-2.838z" />
        </symbol>
        <symbol id="icon-scroll-down" viewBox="0 0 32 32">
            <path
                d="M16.946 17.867c-.124.125-.271.224-.434.292s-.337.103-.513.103-.35-.035-.513-.103-.31-.167-.434-.292l-6.107-6.12c-.124-.125-.271-.224-.434-.292s-.337-.103-.513-.103-.35.035-.513.103-.31.167-.434.292c-.248.25-.388.588-.388.94s.139.69.388.94l6.12 6.12c.75.749 1.767 1.17 2.827 1.17s2.077-.421 2.827-1.17l6.12-6.12c.246-.248.385-.584.387-.933.001-.175-.033-.349-.099-.512s-.164-.31-.288-.435c-.124-.125-.272-.224-.434-.292a1.3275 1.3275 0 0 0-1.026 0c-.163.068-.31.167-.434.292l-6.107 6.12z" />
        </symbol>
        <symbol id="icon-logo" viewBox="0 0 32 32">
            <path fill="#fcf1e0" style="fill:var(--color1, #fcf1e0)"
                d="M5.277 21.409 16.054 3.985l.64-.674 8.236 5.491.056 3.314 2.01 3.28-8.88 14.077L5.277 21.41z" />
            <path fill="none" stroke="#fd9222" style="stroke:var(--color2, #fd9222)" stroke-linejoin="round"
                stroke-linecap="round" stroke-width="2.6667"
                d="M21.635 23.88 7.45 15.016m3.911-6.417 14.186 8.864M10.63 25.864l11.736-19.25m4.81 8.175c-3.04-1.899-4.234-3.384-2.278-6.592l-9.626-6.015-11.736 19.25 14.185 8.864 9.454-15.507z" />
        </symbol>
        <symbol id="icon-bar" viewBox="0 0 32 32">
            <path fill="#111" style="fill:var(--color3, #111)"
                d="m13.511.472 8.602 8.613.091-.091a.98.98 0 0 1 1.354-.015l.998.998c.349.349.36.88.095 1.25l-.005.008-.163.219 7.04 7.04c.629.629.629 1.634 0 2.263L20.746 31.534c-.629.629-1.634.629-2.263 0l-5.082-5.082a.9612.9612 0 0 1-.7.362c-.136.008-.271-.014-.398-.062s-.242-.123-.338-.22l-2.971-2.971a.9798.9798 0 0 1-.015-1.354l.007-.008.088-.087L.472 13.51a1.5928 1.5928 0 0 1 0-2.263L11.249.47a1.5928 1.5928 0 0 1 2.263 0v.001zm7.522 9.691-2.007-2.006c-.063-.065-.139-.117-.222-.152s-.173-.053-.264-.053c-.091 0-.18.018-.264.053s-.159.087-.222.152l-4.091 4.091c-.065.064-.116.141-.151.225a.6937.6937 0 0 0 .151.757l1.999 1.999.697-.697-1.789-1.789 3.669-3.68 1.793 1.799.701-.701zm-5.801 5.797-2.005-2.005c-.063-.065-.139-.117-.222-.152s-.173-.053-.264-.053c-.091 0-.18.018-.264.053s-.159.087-.222.152l-4.103 4.103c-.274.263-.274.697 0 .971l2.002 2.002.704-.704-1.794-1.787 3.68-3.669 1.787 1.786.699-.698zM7.797 7.078l4.091 4.091c.274.274.709.274.971-.011l4.091-4.091c.065-.062.117-.136.152-.219s.054-.171.054-.261h.011c0-.171-.069-.354-.206-.491L12.87 2.005a.6884.6884 0 0 0-.491-.205.6884.6884 0 0 0-.491.205L7.797 6.108c-.274.263-.274.697 0 .971zm-5.795 5.794 4.091 4.091c.274.274.709.274.971 0l4.091-4.091a.6611.6611 0 0 0 .205-.491h.011c0-.183-.069-.354-.206-.491L7.074 7.799c-.063-.065-.139-.117-.222-.152s-.173-.053-.264-.053c-.091 0-.18.018-.264.053s-.159.087-.222.152l-4.103 4.103c-.274.263-.274.697 0 .971zm7.924 10.005 2.699 2.701 11.013-14.903-.749-.749L9.926 22.877z" />
            <path fill="#fd9222" style="fill:var(--color2, #fd9222)"
                d="m13.511.472 8.602 8.613.091-.091a.98.98 0 0 1 1.354-.015l.998.998c.349.349.36.88.095 1.25l-.005.008-.163.219 7.04 7.04c.629.629.629 1.634 0 2.263L20.746 31.534c-.629.629-1.634.629-2.263 0l-5.082-5.082a.9612.9612 0 0 1-.7.362c-.136.008-.271-.014-.398-.062s-.242-.123-.338-.22l-2.971-2.971a.9798.9798 0 0 1-.015-1.354l.007-.008.088-.087L.472 13.51a1.5928 1.5928 0 0 1 0-2.263L11.249.47a1.5928 1.5928 0 0 1 2.263 0v.001zm7.522 9.691-2.007-2.006c-.063-.065-.139-.117-.222-.152s-.173-.053-.264-.053c-.091 0-.18.018-.264.053s-.159.087-.222.152l-4.091 4.091c-.065.064-.116.141-.151.225a.6937.6937 0 0 0 .151.757l1.999 1.999.697-.697-1.789-1.789 3.669-3.68 1.793 1.799.701-.701zm-5.801 5.797-2.005-2.005c-.063-.065-.139-.117-.222-.152s-.173-.053-.264-.053c-.091 0-.18.018-.264.053s-.159.087-.222.152l-4.103 4.103c-.274.263-.274.697 0 .971l2.002 2.002.704-.704-1.794-1.787 3.68-3.669 1.787 1.786.699-.698zM7.797 7.078l4.091 4.091c.274.274.709.274.971-.011l4.091-4.091c.065-.062.117-.136.152-.219s.054-.171.054-.261h.011c0-.171-.069-.354-.206-.491L12.87 2.005a.6884.6884 0 0 0-.491-.205.6884.6884 0 0 0-.491.205L7.797 6.108c-.274.263-.274.697 0 .971zm-5.795 5.794 4.091 4.091c.274.274.709.274.971 0l4.091-4.091a.6611.6611 0 0 0 .205-.491h.011c0-.183-.069-.354-.206-.491L7.074 7.799c-.063-.065-.139-.117-.222-.152s-.173-.053-.264-.053c-.091 0-.18.018-.264.053s-.159.087-.222.152l-4.103 4.103c-.274.263-.274.697 0 .971zm7.924 10.005 2.699 2.701 11.013-14.903-.749-.749L9.926 22.877z" />
        </symbol>
        <symbol id="icon-coin" viewBox="0 0 32 32">
            <path fill="#fd9222" style="fill:var(--color2, #fd9222)"
                d="M16 .762C7.619.762.762 7.619.762 16S7.619 31.238 16 31.238 31.238 24.381 31.238 16 24.381.762 16 .762zm0 27.428C9.295 28.19 3.809 22.704 3.809 16S9.295 3.809 16 3.809c6.705 0 12.19 5.486 12.19 12.191S22.704 28.19 16 28.19z" />
            <path fill="#fd9222" style="fill:var(--color2, #fd9222)"
                d="M17.981 14.476h-3.962c-.762 0-1.371-.61-1.371-1.371s.61-1.371 1.371-1.371h5.638c.914 0 1.524-.61 1.524-1.524s-.61-1.524-1.524-1.524h-2.133V7.315c0-.914-.61-1.524-1.524-1.524s-1.524.61-1.524 1.524v1.371h-.457c-2.438 0-4.419 1.981-4.419 4.419s1.981 4.419 4.419 4.419h3.809c.762 0 1.371.61 1.371 1.371s-.61 1.371-1.371 1.371H12.19c-.914 0-1.524.61-1.524 1.524s.61 1.524 1.524 1.524h2.286v1.371c0 .914.61 1.524 1.524 1.524s1.524-.61 1.524-1.524v-1.371h.457c2.438 0 4.419-1.981 4.419-4.419s-1.981-4.419-4.419-4.419z" />
        </symbol>
        <symbol id="icon-spoon" viewBox="0 0 32 32">
            <path fill="#fd9222" style="fill:var(--color2, #fd9222)"
                d="M15.373 13.835a5.8953 5.8953 0 0 1-1.345-3.751c0-4.941 5.921-9.877 11.842-9.877 3.269 0 5.921 2.653 5.921 5.922 0 5.922-4.934 11.845-9.881 11.845-1.332 0-2.665-.45-3.75-1.345L3.579 31.213c-.771.771-2.023.771-2.794 0s-.771-2.024 0-2.795l14.587-14.584z" />
        </symbol>
    </defs>
</svg>